<svg xmlns="http://www.w3.org/2000/svg" version="1.1" xmlns:xlink="http://www.w3.org/1999/xlink" xmlns:svgjs="http://svgjs.dev/svgjs" width="1500" height="1500" viewBox="0 0 1500 1500"><rect width="1500" height="1500" fill="#ffffff"></rect><g transform="matrix(0.6666666666666666,0,0,0.6666666666666666,249.39393939393938,438.5856950067477)"><svg viewBox="0 0 396 247" data-background-color="#4a5d5e" preserveAspectRatio="xMidYMid meet" height="935" width="1500" xmlns="http://www.w3.org/2000/svg" xmlns:xlink="http://www.w3.org/1999/xlink"><g id="tight-bounds" transform="matrix(1,0,0,1,0.2400000000000091,-0.09999999999999432)"><svg viewBox="0 0 395.52 247.2" height="247.2" width="395.52"><g><svg></svg></g><g><svg viewBox="0 0 395.52 247.2" height="247.2" width="395.52"><g transform="matrix(1,0,0,1,75.54432,84.7419632069205)"><svg viewBox="0 0 244.43135999999998 77.71607358615897" height="77.71607358615897" width="244.43135999999998"><g><svg viewBox="0 0 373.4534740416703 118.73819165277794" height="77.71607358615897" width="244.43135999999998"><g transform="matrix(1,0,0,1,129.0221140416703,36.691824693314494)"><svg viewBox="0 0 244.43135999999998 45.354542266148954" height="45.354542266148954" width="244.43135999999998"><g id="textblocktransform"><svg viewBox="0 0 244.43135999999998 45.354542266148954" height="45.354542266148954" width="244.43135999999998" id="textblock"><g><svg viewBox="0 0 244.43135999999998 45.354542266148954" height="45.354542266148954" width="244.43135999999998"><g transform="matrix(1,0,0,1,0,0)"><svg width="244.43135999999998" viewBox="3.03 -38.01 207.47 38.5" height="45.354542266148954" data-palette-color="#d2dbc8"><path d="M26.22-13.28L26.22-12.94Q26.22-6.79 23.47-3.15 20.73 0.49 15.92 0.49L15.92 0.49Q11.28 0.49 8.69-2.86L8.69-2.86 8.4 0 3.03 0 3.03-37.5 8.96-37.5 8.96-23.88Q11.52-26.9 15.87-26.9L15.87-26.9Q20.7-26.9 23.46-23.32 26.22-19.73 26.22-13.28L26.22-13.28ZM20.29-12.7L20.29-13.45Q20.29-17.75 18.77-19.9 17.26-22.05 14.38-22.05L14.38-22.05Q10.52-22.05 8.96-18.68L8.96-18.68 8.96-7.79Q10.55-4.35 14.43-4.35L14.43-4.35Q17.21-4.35 18.73-6.42 20.24-8.5 20.29-12.7L20.29-12.7ZM30.08-13.16L30.08-13.45Q30.08-17.33 31.61-20.45 33.15-23.56 35.94-25.23 38.72-26.9 42.33-26.9L42.33-26.9Q47.68-26.9 51.01-23.46 54.34-20.02 54.61-14.33L54.61-14.33 54.64-12.94Q54.64-9.03 53.13-5.96 51.63-2.88 48.84-1.2 46.04 0.49 42.38 0.49L42.38 0.49Q36.79 0.49 33.43-3.23 30.08-6.96 30.08-13.16L30.08-13.16ZM36.01-12.94L36.01-12.94Q36.01-8.86 37.69-6.56 39.38-4.25 42.38-4.25 45.38-4.25 47.06-6.59 48.73-8.94 48.73-13.45L48.73-13.45Q48.73-17.46 47.01-19.8 45.29-22.14 42.33-22.14L42.33-22.14Q39.43-22.14 37.72-19.84 36.01-17.53 36.01-12.94ZM58.54-13.16L58.54-13.45Q58.54-17.33 60.08-20.45 61.62-23.56 64.4-25.23 67.18-26.9 70.8-26.9L70.8-26.9Q76.14-26.9 79.47-23.46 82.81-20.02 83.08-14.33L83.08-14.33 83.1-12.94Q83.1-9.03 81.6-5.96 80.1-2.88 77.3-1.2 74.51 0.49 70.84 0.49L70.84 0.49Q65.25 0.49 61.9-3.23 58.54-6.96 58.54-13.16L58.54-13.16ZM64.47-12.94L64.47-12.94Q64.47-8.86 66.16-6.56 67.84-4.25 70.84-4.25 73.85-4.25 75.52-6.59 77.19-8.94 77.19-13.45L77.19-13.45Q77.19-17.46 75.47-19.8 73.75-22.14 70.8-22.14L70.8-22.14Q67.89-22.14 66.18-19.84 64.47-17.53 64.47-12.94ZM104.53 0L96.7-11.33 94.06-8.62 94.06 0 88.13 0 88.13-37.5 94.06-37.5 94.06-15.87 95.92-18.19 103.22-26.42 110.34-26.42 100.53-15.41 111.39 0 104.53 0ZM129.02-7.18L129.02-7.18Q129.02-8.76 127.71-9.59 126.41-10.42 123.38-11.06 120.35-11.69 118.32-12.67L118.32-12.67Q113.88-14.82 113.88-18.9L113.88-18.9Q113.88-22.31 116.76-24.61 119.64-26.9 124.09-26.9L124.09-26.9Q128.82-26.9 131.74-24.56 134.66-22.22 134.66-18.48L134.66-18.48 128.73-18.48Q128.73-20.19 127.46-21.33 126.19-22.46 124.09-22.46L124.09-22.46Q122.13-22.46 120.9-21.56 119.67-20.65 119.67-19.14L119.67-19.14Q119.67-17.77 120.82-17.02 121.96-16.26 125.45-15.49 128.95-14.72 130.93-13.66 132.92-12.6 133.89-11.11 134.85-9.62 134.85-7.5L134.85-7.5Q134.85-3.93 131.9-1.72 128.95 0.49 124.16 0.49L124.16 0.49Q120.91 0.49 118.37-0.68 115.83-1.86 114.42-3.91 113-5.96 113-8.33L113-8.33 118.76-8.33Q118.89-6.23 120.35-5.09 121.82-3.96 124.23-3.96L124.23-3.96Q126.58-3.96 127.8-4.85 129.02-5.74 129.02-7.18ZM145.86-37.5L145.86-23.54Q148.77-26.9 153.21-26.9L153.21-26.9Q161.66-26.9 161.78-17.26L161.78-17.26 161.78 0 155.85 0 155.85-17.04Q155.85-19.78 154.66-20.91 153.48-22.05 151.18-22.05L151.18-22.05Q147.62-22.05 145.86-18.87L145.86-18.87 145.86 0 139.93 0 139.93-37.5 145.86-37.5ZM174.08-26.42L174.08 0 168.15 0 168.15-26.42 174.08-26.42ZM167.78-33.28L167.78-33.28Q167.78-34.64 168.65-35.55 169.52-36.45 171.13-36.45 172.74-36.45 173.62-35.55 174.5-34.64 174.5-33.28L174.5-33.28Q174.5-31.93 173.62-31.04 172.74-30.15 171.13-30.15 169.52-30.15 168.65-31.04 167.78-31.93 167.78-33.28ZM188.56 0L182.62 0 182.62-22.02 178.6-22.02 178.6-26.42 182.62-26.42 182.62-28.83Q182.62-33.23 185.07-35.62 187.51-38.01 191.9-38.01L191.9-38.01Q193.46-38.01 195.22-37.57L195.22-37.57 195.08-32.93Q194.1-33.13 192.8-33.13L192.8-33.13Q188.56-33.13 188.56-28.76L188.56-28.76 188.56-26.42 193.93-26.42 193.93-22.02 188.56-22.02 188.56 0ZM199.76-32.84L205.69-32.84 205.69-26.42 210.36-26.42 210.36-22.02 205.69-22.02 205.69-7.28Q205.69-5.76 206.29-5.09 206.89-4.42 208.43-4.42L208.43-4.42Q209.45-4.42 210.5-4.66L210.5-4.66 210.5-0.07Q208.48 0.49 206.6 0.49L206.6 0.49Q199.76 0.49 199.76-7.06L199.76-7.06 199.76-22.02 195.41-22.02 195.41-26.42 199.76-26.42 199.76-32.84Z" opacity="1" transform="matrix(1,0,0,1,0,0)" fill="#000000" class="wordmark-text-0" data-fill-palette-color="primary" id="text-0"></path></svg></g></svg></g></svg></g></svg></g><g><svg viewBox="0 0 118.31499512164693 118.73819165277794" height="118.73819165277794" width="118.31499512164693"><g><svg xmlns="http://www.w3.org/2000/svg" xmlns:xlink="http://www.w3.org/1999/xlink" version="1.1" x="0" y="0" viewBox="0.5 0.4318874379134535 47 47.16811256208655" enable-background="new 0 0 48 48" xml:space="preserve" height="118.73819165277794" width="118.31499512164693" class="icon-icon-0" data-fill-palette-color="accent" id="icon-0"><g fill="#f8f8ec" data-fill-palette-color="accent"><path d="M0.7 11.5c0 0 0 0.1-0.1 0.1 0 0.1-0.1 0.2-0.1 0.3 0 0 0 0.1 0 0.1 0 0.1 0 0.3 0 0.4s0 0.3 0 0.4c0 0 0 0.1 0 0.1 0 0.1 0.1 0.2 0.1 0.3 0 0 0 0.1 0.1 0.1 0 0.1 0.1 0.2 0.1 0.2 0 0 0.1 0.1 0.1 0.1 0.1 0.1 0.1 0.1 0.2 0.2 0 0 0 0 0 0l11.2 9.9c0.4 0.3 0.8 0.5 1.3 0.5 0.5 0 1.1-0.2 1.5-0.7 0.7-0.8 0.6-2-0.2-2.8l-7.4-6.5h37.9c1.1 0 2-0.9 2-2s-0.9-2-2-2H7.6L15 3.9c0.8-0.7 0.9-2 0.2-2.8-0.7-0.8-2-0.9-2.8-0.2L1.2 10.9c0 0 0 0 0 0C1.1 11 1 11.1 1 11.1c0 0-0.1 0.1-0.1 0.1C0.8 11.3 0.8 11.4 0.7 11.5z" fill="#000000" data-fill-palette-color="accent"></path><path d="M47.3 36.5c0 0 0-0.1 0.1-0.1 0-0.1 0.1-0.2 0.1-0.3 0 0 0-0.1 0-0.1 0-0.1 0-0.3 0-0.4s0-0.3 0-0.4c0 0 0-0.1 0-0.1 0-0.1-0.1-0.2-0.1-0.3 0 0 0-0.1-0.1-0.1 0-0.1-0.1-0.2-0.1-0.2 0 0-0.1-0.1-0.1-0.1-0.1-0.1-0.1-0.1-0.2-0.2 0 0 0 0 0 0l-11.2-9.9c-0.8-0.7-2.1-0.6-2.8 0.2-0.7 0.8-0.6 2 0.2 2.8l7.4 6.5H2.5c-1.1 0-2 0.9-2 2 0 1.1 0.9 2 2 2h37.9L33 44.1c-0.8 0.7-0.9 2-0.2 2.8 0.4 0.4 0.9 0.7 1.5 0.7 0.5 0 0.9-0.2 1.3-0.5l11.2-9.9c0 0 0 0 0 0 0.1-0.1 0.1-0.1 0.2-0.2 0 0 0.1-0.1 0.1-0.1C47.2 36.7 47.2 36.6 47.3 36.5z" fill="#000000" data-fill-palette-color="accent"></path></g></svg></g></svg></g></svg></g></svg></g><path d="M216.474 78.742L216.474 14.552 0 14.552 0 232.648 216.474 232.648 216.474 168.458 213.797 168.458 213.797 229.971 2.677 229.971 2.677 17.229 213.797 17.229 213.797 78.742Z" fill="#000000" stroke="transparent" data-fill-palette-color="tertiary"></path></svg></g><defs></defs></svg><rect width="395.52" height="247.2" fill="none" stroke="none" visibility="hidden"></rect></g></svg></g></svg>